<svg width="174" height="175" xmlns="http://www.w3.org/2000/svg" xmlns:xlink="http://www.w3.org/1999/xlink" xml:space="preserve" overflow="hidden"><g transform="translate(-136 -184)"><path d="M159.5 87 161.312 87 161.312 58 12.6875 58 12.6875 87 14.5 87C21.7574 87 27.6406 92.8832 27.6406 100.141 27.6406 107.398 21.7574 113.281 14.5 113.281L12.6875 113.281 12.6875 141.375 161.312 141.375 161.312 113.281 159.5 113.281C152.243 113.281 146.359 107.398 146.359 100.141 146.359 92.8832 152.243 87 159.5 87ZM142.734 100.141C142.741 108.697 149.182 115.88 157.688 116.816L157.688 137.75 126.875 137.75 126.875 130.5 123.25 130.5 123.25 137.75 16.3125 137.75 16.3125 116.808C25.5178 115.809 32.1704 107.537 31.1714 98.3317 30.3219 90.5041 24.14 84.3224 16.3125 83.4729L16.3125 61.625 123.25 61.625 123.25 68.875 126.875 68.875 126.875 61.625 157.688 61.625 157.688 83.4729C149.185 84.4083 142.745 91.5867 142.734 100.141Z" transform="matrix(1 0 0 1.00575 136 184)"/><path d="M123.25 76.125 126.875 76.125 126.875 87 123.25 87Z" transform="matrix(1 0 0 1.00575 136 184)"/><path d="M123.25 94.25 126.875 94.25 126.875 105.125 123.25 105.125Z" transform="matrix(1 0 0 1.00575 136 184)"/><path d="M123.25 112.375 126.875 112.375 126.875 123.25 123.25 123.25Z" transform="matrix(1 0 0 1.00575 136 184)"/><path d="M43.5 83.375 103.312 83.375 103.312 87 43.5 87Z" transform="matrix(1 0 0 1.00575 136 184)"/><path d="M43.5 97.875 77.9375 97.875 77.9375 101.5 43.5 101.5Z" transform="matrix(1 0 0 1.00575 136 184)"/><path d="M43.5 112.375 90.625 112.375 90.625 116 43.5 116Z" transform="matrix(1 0 0 1.00575 136 184)"/><path d="M46.2967 52.5625 63.5771 52.5625 137.317 38.3724 140.052 52.5625 143.744 52.5625 140.19 34.1276 46.2622 52.2C46.1622 52.2094 46.0888 52.2984 46.0982 52.3985 46.1076 52.4985 46.1966 52.5719 46.2967 52.5625Z" transform="matrix(1 0 0 1.00575 136 184)"/></g></svg>